<svg width="213" height="59" viewBox="0 0 213 59" fill="none" xmlns="http://www.w3.org/2000/svg">
<path d="M60.1719 14.1953C59.7344 14.1953 59.2734 14.2422 58.7891 14.3359C58.3203 14.4141 57.8906 14.5859 57.5 14.8516C57.1094 15.1172 56.7891 15.4922 56.5391 15.9766C56.2891 16.4609 56.1641 17.1094 56.1641 17.9219C56.1641 18.75 56.3047 19.7031 56.5859 20.7812C56.8672 21.8438 57.1719 23.0312 57.5 24.3438C57.8281 25.6406 58.1328 27.0547 58.4141 28.5859C58.6953 30.1016 58.8359 31.7109 58.8359 33.4141C58.8359 35.0547 58.6562 36.5234 58.2969 37.8203C57.9531 39.1016 57.4922 40.2031 56.9141 41.125C57.6016 41.3125 58.3125 41.5 59.0469 41.6875C59.7812 41.875 60.5781 42.0391 61.4375 42.1797C61.9375 42.2734 62.4453 42.3438 62.9609 42.3906C63.4922 42.4219 64.0234 42.4375 64.5547 42.4375C65.4609 42.4375 66.3359 42.3594 67.1797 42.2031C68.0234 42.0312 68.7656 41.7578 69.4062 41.3828C70.0625 41.0078 70.5859 40.5156 70.9766 39.9062C71.3672 39.2812 71.5625 38.5078 71.5625 37.5859C71.5625 37.4453 71.5547 37.3047 71.5391 37.1641C71.5234 37.0078 71.5156 36.8438 71.5156 36.6719C71.5156 36.2969 71.6406 36.1094 71.8906 36.1094C71.9688 36.1094 72.0625 36.1562 72.1719 36.25C72.2812 36.3438 72.3828 36.5 72.4766 36.7188C72.5859 36.9375 72.6719 37.2266 72.7344 37.5859C72.8125 37.9297 72.8516 38.3516 72.8516 38.8516C72.8516 39.2422 72.8047 39.6875 72.7109 40.1875C72.6172 40.6875 72.4531 41.2109 72.2188 41.7578C72 42.2891 71.6953 42.8125 71.3047 43.3281C70.9297 43.8594 70.4531 44.3281 69.875 44.7344C69.2969 45.1562 68.6016 45.4922 67.7891 45.7422C66.9922 45.9922 66.0625 46.1172 65 46.1172C64.1094 46.1172 63.1953 46.0391 62.2578 45.8828C61.3203 45.7422 60.3828 45.5547 59.4453 45.3203C58.5234 45.0859 57.625 44.8203 56.75 44.5234C55.8906 44.2266 55.0938 43.9375 54.3594 43.6562C53.6562 44.1094 52.8828 44.4766 52.0391 44.7578C51.2109 45.0547 50.3828 45.2031 49.5547 45.2031C48.4922 45.2031 47.6797 44.9766 47.1172 44.5234C46.5703 44.0859 46.2969 43.5156 46.2969 42.8125C46.2969 42.0625 46.6641 41.4297 47.3984 40.9141C48.1328 40.3984 49.3125 40.1406 50.9375 40.1406C51.3281 40.1406 51.7031 40.1562 52.0625 40.1875C52.4375 40.2188 52.8047 40.2578 53.1641 40.3047C53.5859 39.3047 53.9062 38.1875 54.125 36.9531C54.3438 35.7188 54.4531 34.4375 54.4531 33.1094C54.4531 32.0625 54.375 31.0312 54.2188 30.0156C54.0781 28.9844 53.9219 27.9688 53.75 26.9688C53.5781 25.9531 53.4141 24.9375 53.2578 23.9219C53.1172 22.9062 53.0469 21.875 53.0469 20.8281C53.0469 19.2031 53.25 17.7031 53.6562 16.3281C54.0625 14.9531 54.6484 13.7734 55.4141 12.7891C56.1797 11.7891 57.1016 11.0078 58.1797 10.4453C59.2578 9.88281 60.4766 9.60156 61.8359 9.60156C63.0703 9.60156 64.1953 9.79687 65.2109 10.1875C66.2422 10.5625 67.1328 11.0078 67.8828 11.5234C68.6328 12.0391 69.2266 12.5547 69.6641 13.0703C70.1172 13.5859 70.3828 13.9766 70.4609 14.2422C70.4922 14.3984 70.5234 14.5312 70.5547 14.6406C70.5859 14.7344 70.6016 14.8203 70.6016 14.8984C70.6016 15.0703 70.5547 15.2031 70.4609 15.2969C70.3828 15.3906 70.2891 15.5234 70.1797 15.6953C70.0859 15.8516 69.9766 15.9688 69.8516 16.0469C69.7266 16.1094 69.6016 16.1641 69.4766 16.2109C69.3516 16.2578 69.2266 16.3125 69.1016 16.375C68.9922 16.4375 68.9062 16.5469 68.8438 16.7031C68.7344 16.9375 68.5859 17.1172 68.3984 17.2422C68.2109 17.3516 68.0078 17.4062 67.7891 17.4062C67.5234 17.4062 67.3047 17.3516 67.1328 17.2422C67.0078 17.1641 66.7422 16.9609 66.3359 16.6328C65.9453 16.3047 65.4453 15.9609 64.8359 15.6016C64.2266 15.2422 63.5234 14.9219 62.7266 14.6406C61.9297 14.3437 61.0781 14.1953 60.1719 14.1953ZM48.9453 44.0078C49.4922 44.0078 50 43.8828 50.4688 43.6328C50.9375 43.3828 51.3672 43.0391 51.7578 42.6016C51.0703 42.3359 50.5 42.1406 50.0469 42.0156C49.6094 41.8906 49.2266 41.8281 48.8984 41.8281C48.5703 41.8281 48.3125 41.875 48.125 41.9688C47.9375 42.0469 47.7969 42.1484 47.7031 42.2734C47.6094 42.3828 47.5469 42.5078 47.5156 42.6484C47.5 42.7734 47.4922 42.875 47.4922 42.9531C47.4922 43.2188 47.6094 43.4609 47.8438 43.6797C48.0938 43.8984 48.4609 44.0078 48.9453 44.0078ZM86.7266 34.1172C86.8203 34.1172 86.8984 34.1484 86.9609 34.2109C87.0391 34.2734 87.0781 34.3672 87.0781 34.4922C87.0781 34.6172 87.0547 34.7344 87.0078 34.8438C86.7734 35.5 86.5156 36.1172 86.2344 36.6953C85.9688 37.2734 85.7188 37.7891 85.4844 38.2422C85.2031 38.7578 84.9297 39.2422 84.6641 39.6953C84.3359 40.2109 83.9688 40.7031 83.5625 41.1719C83.1719 41.625 82.7422 42.0312 82.2734 42.3906C81.8047 42.7344 81.2969 43.0078 80.75 43.2109C80.2031 43.4141 79.625 43.5156 79.0156 43.5156C78.5625 43.5156 78.0625 43.4375 77.5156 43.2812C76.9844 43.125 76.4844 42.8359 76.0156 42.4141C75.5625 41.9922 75.1875 41.4141 74.8906 40.6797C74.5781 39.9453 74.4219 39 74.4219 37.8438C74.4219 37.3125 74.4766 36.7734 74.5859 36.2266C74.6797 35.6797 74.8203 35.1562 75.0078 34.6562C75.1797 34.1562 75.375 33.6875 75.5938 33.25C75.8281 32.8125 76.0625 32.4297 76.2969 32.1016C76.7031 31.5391 77.1328 31.0156 77.5859 30.5312C78.0391 30.0312 78.4922 29.6016 78.9453 29.2422C79.4141 28.8672 79.8672 28.5781 80.3047 28.375C80.7422 28.1719 81.1484 28.0703 81.5234 28.0703C82.1172 28.0703 82.6328 28.2969 83.0703 28.75C83.5234 29.2031 83.75 29.8516 83.75 30.6953C83.75 31.4297 83.5625 32.1953 83.1875 32.9922C82.8125 33.7734 82.3438 34.5391 81.7812 35.2891C81.2188 36.0391 80.6172 36.7344 79.9766 37.375C79.3359 38.0156 78.75 38.5469 78.2188 38.9688C78.5 39.6719 78.8594 40.1875 79.2969 40.5156C79.7344 40.8438 80.1797 41.0078 80.6328 41.0078C81.3359 41.0078 81.9609 40.7812 82.5078 40.3281C83.0703 39.875 83.5703 39.3203 84.0078 38.6641C84.4609 38.0078 84.8516 37.3203 85.1797 36.6016C85.5234 35.8828 85.8281 35.25 86.0938 34.7031C86.1875 34.5156 86.2812 34.375 86.375 34.2812C86.4688 34.1719 86.5859 34.1172 86.7266 34.1172ZM77.6094 35.2422C77.6094 36.1641 77.6797 36.9766 77.8203 37.6797C78.1328 37.3672 78.4453 37.0156 78.7578 36.625C79.0859 36.2188 79.375 35.8047 79.625 35.3828C79.8906 34.9609 80.1016 34.5312 80.2578 34.0938C80.4297 33.6562 80.5156 33.2344 80.5156 32.8281C80.5156 32.2031 80.3828 31.7188 80.1172 31.375C79.8516 31.0312 79.5859 30.8594 79.3203 30.8594C79.1641 30.8594 78.9844 30.9609 78.7812 31.1641C78.5938 31.3516 78.4062 31.6328 78.2188 32.0078C78.0469 32.3828 77.8984 32.8438 77.7734 33.3906C77.6641 33.9219 77.6094 34.5391 77.6094 35.2422ZM99.3359 34.8438C98.8672 36.25 98.4297 37.4844 98.0234 38.5469C97.6172 39.5938 97.2109 40.4766 96.8047 41.1953C96.3984 41.8984 95.9609 42.4297 95.4922 42.7891C95.0391 43.1484 94.5312 43.3281 93.9688 43.3281C93.5781 43.3281 93.25 43.2031 92.9844 42.9531C92.7344 42.7031 92.5234 42.4219 92.3516 42.1094C92.1797 41.7969 92.0469 41.5 91.9531 41.2188C91.875 40.9219 91.8203 40.7266 91.7891 40.6328C91.7734 40.6016 91.7578 40.5547 91.7422 40.4922C91.7266 40.4297 91.7031 40.3984 91.6719 40.3984C91.6406 40.3984 91.6094 40.4219 91.5781 40.4688C91.5625 40.5156 91.5391 40.5625 91.5078 40.6094C91.4609 40.7188 91.3359 40.9219 91.1328 41.2188C90.9297 41.5156 90.6719 41.8203 90.3594 42.1328C90.0625 42.4453 89.7188 42.7266 89.3281 42.9766C88.9375 43.2109 88.5156 43.3281 88.0625 43.3281C87.7031 43.3281 87.3516 43.2109 87.0078 42.9766C86.6797 42.7422 86.3906 42.4297 86.1406 42.0391C85.8906 41.6328 85.6953 41.1562 85.5547 40.6094C85.3984 40.0625 85.3203 39.4766 85.3203 38.8516C85.3203 37.4922 85.5391 36.2188 85.9766 35.0312C86.3984 33.8281 87.0938 32.625 88.0625 31.4219C88.5312 30.8438 89.0234 30.3281 89.5391 29.875C90.0703 29.4219 90.5859 29.0469 91.0859 28.75C91.5859 28.4375 92.0625 28.2031 92.5156 28.0469C92.9844 27.8906 93.3828 27.8125 93.7109 27.8125C93.9297 27.8125 94.1484 27.8516 94.3672 27.9297C94.5859 28.0078 94.7812 28.1406 94.9531 28.3281C95.125 28.5156 95.2578 28.7656 95.3516 29.0781C95.4609 29.375 95.5156 29.7422 95.5156 30.1797C95.5156 30.6484 95.4375 31.1562 95.2812 31.7031C95.1406 32.25 94.9219 32.7656 94.625 33.25C94.3438 33.7188 93.9922 34.1094 93.5703 34.4219C93.1484 34.7344 92.6719 34.8906 92.1406 34.8906C91.8125 34.8906 91.6484 34.7656 91.6484 34.5156C91.6484 34.3438 91.6875 34.0625 91.7656 33.6719C91.8594 33.2812 91.9062 32.9062 91.9062 32.5469C91.9062 32.4062 91.8984 32.2422 91.8828 32.0547C91.8672 31.8516 91.8281 31.6562 91.7656 31.4688C91.7031 31.2812 91.6172 31.125 91.5078 31C91.3984 30.875 91.25 30.8125 91.0625 30.8125C90.6406 30.8125 90.2734 31.0078 89.9609 31.3984C89.6484 31.7891 89.3828 32.2656 89.1641 32.8281C88.9609 33.3906 88.8047 33.9766 88.6953 34.5859C88.5859 35.1953 88.5312 35.7188 88.5312 36.1562C88.5312 36.75 88.5781 37.25 88.6719 37.6562C88.7656 38.0469 88.8906 38.3672 89.0469 38.6172C89.2031 38.8516 89.3828 39.0234 89.5859 39.1328C89.7891 39.2266 90 39.2734 90.2188 39.2734C90.7344 39.2734 91.1953 39.1016 91.6016 38.7578C92.0078 38.3984 92.3594 38.0078 92.6562 37.5859C92.9531 37.1484 93.1953 36.7578 93.3828 36.4141C93.5859 36.0547 93.75 35.875 93.875 35.875C94.0156 35.875 94.1094 36.0391 94.1562 36.3672C94.25 37.0703 94.3516 37.6484 94.4609 38.1016C94.5703 38.5547 94.6797 38.9141 94.7891 39.1797C94.8984 39.4297 95.0078 39.6094 95.1172 39.7188C95.2422 39.8125 95.3672 39.8594 95.4922 39.8594C95.7266 39.8594 95.9609 39.7266 96.1953 39.4609C96.4297 39.1797 96.6641 38.8047 96.8984 38.3359C97.1328 37.8672 97.375 37.3203 97.625 36.6953C97.875 36.0703 98.1406 35.4062 98.4219 34.7031C98.5938 34.3125 98.7969 34.1172 99.0312 34.1172C99.2656 34.1172 99.3828 34.2578 99.3828 34.5391C99.3828 34.6484 99.3672 34.75 99.3359 34.8438ZM109.883 34.8438C109.523 36.0625 109.156 37.1875 108.781 38.2188C108.406 39.25 108.008 40.1406 107.586 40.8906C107.164 41.6406 106.695 42.2266 106.18 42.6484C105.68 43.0703 105.109 43.2812 104.469 43.2812C103.688 43.2812 103.055 42.8906 102.57 42.1094C102.102 41.3125 101.867 40.2656 101.867 38.9688C101.867 38.4062 101.891 37.875 101.938 37.375C102 36.875 102.062 36.3906 102.125 35.9219C102.203 35.4531 102.266 35 102.312 34.5625C102.375 34.125 102.406 33.6953 102.406 33.2734C102.406 32.8203 102.352 32.5234 102.242 32.3828C102.133 32.2422 101.992 32.1719 101.82 32.1719C101.789 32.1719 101.758 32.1797 101.727 32.1953C101.695 32.1953 101.633 32.2031 101.539 32.2188C101.461 32.2188 101.336 32.2344 101.164 32.2656C101.008 32.2812 100.789 32.3047 100.508 32.3359C100.336 32.7109 100.195 33.0312 100.086 33.2969C99.9766 33.5469 99.8828 33.7656 99.8047 33.9531C99.7266 34.1406 99.6562 34.3047 99.5938 34.4453C99.5469 34.5703 99.5 34.7031 99.4531 34.8438C99.3281 35.1406 99.2188 35.3281 99.125 35.4062C99.0312 35.4688 98.9219 35.5 98.7969 35.5C98.7031 35.5 98.625 35.4609 98.5625 35.3828C98.4844 35.3047 98.4453 35.1953 98.4453 35.0547C98.4453 34.9609 98.4688 34.8516 98.5156 34.7266C98.5625 34.5859 98.6172 34.4141 98.6797 34.2109C98.7578 33.9922 98.8359 33.7188 98.9141 33.3906C99.0078 33.0625 99.1016 32.6562 99.1953 32.1719C98.8828 32.0312 98.6172 31.7031 98.3984 31.1875C98.1641 30.6562 98.0469 30.0391 98.0469 29.3359C98.0469 28.7578 98.1484 28.1719 98.3516 27.5781C98.5391 26.9844 98.7734 26.4453 99.0547 25.9609C99.3516 25.4609 99.6641 25.0547 99.9922 24.7422C100.336 24.4297 100.641 24.2734 100.906 24.2734C101.25 24.2734 101.539 24.4844 101.773 24.9062C102.023 25.3125 102.148 25.7812 102.148 26.3125C102.148 26.5938 102.117 26.8828 102.055 27.1797C101.992 27.4609 101.922 27.7266 101.844 27.9766C101.781 28.2109 101.719 28.4297 101.656 28.6328C101.594 28.8203 101.562 28.9688 101.562 29.0781C101.562 29.2188 101.617 29.2891 101.727 29.2891C101.805 29.2891 101.945 29.25 102.148 29.1719L103.297 28.6562C103.719 28.4844 104.078 28.3984 104.375 28.3984C104.875 28.3984 105.203 28.5547 105.359 28.8672C105.531 29.1797 105.617 29.6406 105.617 30.25C105.617 30.5156 105.586 30.9844 105.523 31.6562C105.461 32.3125 105.391 33.0469 105.312 33.8594C105.25 34.6562 105.188 35.4531 105.125 36.25C105.078 37.0469 105.055 37.6953 105.055 38.1953C105.055 38.7422 105.109 39.1484 105.219 39.4141C105.344 39.6641 105.602 39.7891 105.992 39.7891C106.273 39.7891 106.547 39.625 106.812 39.2969C107.094 38.9688 107.359 38.5547 107.609 38.0547C107.859 37.5547 108.094 37.0078 108.312 36.4141C108.547 35.8203 108.758 35.25 108.945 34.7031C109.086 34.3125 109.289 34.1172 109.555 34.1172C109.805 34.1172 109.93 34.2578 109.93 34.5391C109.93 34.5859 109.922 34.6328 109.906 34.6797C109.906 34.7266 109.898 34.7812 109.883 34.8438ZM126.359 34.1172C126.453 34.1172 126.531 34.1562 126.594 34.2344C126.672 34.2969 126.711 34.3906 126.711 34.5156C126.711 34.6406 126.688 34.7578 126.641 34.8672C126.156 36.2578 125.711 37.4844 125.305 38.5469C124.898 39.5938 124.484 40.4688 124.062 41.1719C123.656 41.875 123.234 42.4062 122.797 42.7656C122.359 43.125 121.875 43.3047 121.344 43.3047C120.688 43.3047 120.156 43.1562 119.75 42.8594C119.344 42.5469 119.023 42.1484 118.789 41.6641C118.555 41.1797 118.398 40.6406 118.32 40.0469C118.242 39.4375 118.203 38.8359 118.203 38.2422C118.203 37.8203 118.211 37.4062 118.227 37C118.242 36.5781 118.258 36.1797 118.273 35.8047C118.305 35.4297 118.328 35.0938 118.344 34.7969C118.359 34.5 118.367 34.2578 118.367 34.0703C118.367 33.7734 118.312 33.5625 118.203 33.4375C118.109 33.2969 118 33.2266 117.875 33.2266C117.734 33.2266 117.617 33.2969 117.523 33.4375C117.43 33.5625 117.352 33.7109 117.289 33.8828C117.211 34.0703 117.094 34.4062 116.938 34.8906C116.781 35.375 116.602 35.9219 116.398 36.5312C116.195 37.1406 115.977 37.7812 115.742 38.4531C115.523 39.1094 115.32 39.7031 115.133 40.2344C114.883 40.9219 114.641 41.4844 114.406 41.9219C114.188 42.3438 113.977 42.6719 113.773 42.9062C113.57 43.1406 113.367 43.2969 113.164 43.375C112.977 43.4688 112.797 43.5156 112.625 43.5156C112.469 43.5156 112.305 43.4844 112.133 43.4219C111.977 43.3594 111.828 43.2578 111.688 43.1172C111.562 42.9766 111.453 42.7891 111.359 42.5547C111.266 42.3047 111.219 41.9922 111.219 41.6172C111.188 40.8203 111.164 39.9609 111.148 39.0391C111.148 38.1016 111.148 37.1875 111.148 36.2969C111.148 35.875 111.148 35.4688 111.148 35.0781C111.164 34.6875 111.172 34.3281 111.172 34C111.172 33.5469 111.148 33.2266 111.102 33.0391C111.055 32.8359 110.992 32.7344 110.914 32.7344C110.742 32.7344 110.594 32.9062 110.469 33.25C110.359 33.5781 110.164 34.0938 109.883 34.7969C109.789 35.0312 109.688 35.1953 109.578 35.2891C109.484 35.3828 109.383 35.4297 109.273 35.4297C109.18 35.4297 109.102 35.3984 109.039 35.3359C108.961 35.2578 108.922 35.1328 108.922 34.9609C108.922 34.8672 108.961 34.7031 109.039 34.4688C109.117 34.2188 109.211 33.9531 109.32 33.6719C109.445 33.375 109.562 33.0781 109.672 32.7812C109.797 32.4688 109.906 32.2031 110 31.9844C110.141 31.625 110.305 31.2578 110.492 30.8828C110.695 30.4922 110.914 30.1406 111.148 29.8281C111.398 29.5 111.664 29.2344 111.945 29.0312C112.242 28.8125 112.562 28.7031 112.906 28.7031C113.359 28.7031 113.758 28.9531 114.102 29.4531C114.461 29.9531 114.656 30.7109 114.688 31.7266C114.703 32.5391 114.711 33.3125 114.711 34.0469C114.727 34.7656 114.742 35.3984 114.758 35.9453C114.773 36.4766 114.781 36.9062 114.781 37.2344C114.797 37.5469 114.812 37.7031 114.828 37.7031C114.859 37.7031 114.93 37.5625 115.039 37.2812C115.148 37 115.289 36.6328 115.461 36.1797C115.633 35.7109 115.828 35.1875 116.047 34.6094C116.266 34.0156 116.492 33.4219 116.727 32.8281C116.977 32.2188 117.234 31.6406 117.5 31.0938C117.766 30.5312 118.031 30.0391 118.297 29.6172C118.578 29.1641 118.875 28.8203 119.188 28.5859C119.516 28.3516 119.883 28.2344 120.289 28.2344C120.852 28.2344 121.258 28.5703 121.508 29.2422C121.758 29.8984 121.883 30.7891 121.883 31.9141C121.883 32.1953 121.875 32.5391 121.859 32.9453C121.844 33.3516 121.82 33.7812 121.789 34.2344C121.773 34.6875 121.758 35.1406 121.742 35.5938C121.727 36.0469 121.719 36.4609 121.719 36.8359C121.719 37.4766 121.742 38 121.789 38.4062C121.852 38.7969 121.93 39.1016 122.023 39.3203C122.117 39.5391 122.219 39.6875 122.328 39.7656C122.438 39.8438 122.547 39.8828 122.656 39.8828C122.969 39.8828 123.25 39.7422 123.5 39.4609C123.766 39.1797 124.016 38.7969 124.25 38.3125C124.484 37.8281 124.719 37.2812 124.953 36.6719C125.188 36.0469 125.445 35.3906 125.727 34.7031C125.867 34.3125 126.078 34.1172 126.359 34.1172Z" fill="#EDECEC"/>
<path d="M141.266 31.8906L148.953 43H142.156L137.453 35.8281L132.781 43H126.062L133.75 31.8906L126.188 20.9219H132.984L137.547 27.9844L142.094 20.9219H148.812L141.266 31.8906ZM160.516 26.2969C162.734 26.2969 164.594 27.1094 166.094 28.7344C167.578 30.375 168.328 32.4062 168.328 34.8281C168.328 37.2656 167.578 39.2969 166.094 40.9375C164.594 42.5781 162.734 43.3906 160.516 43.3906C158.703 43.3906 157.188 42.7656 155.969 41.5V49.0781H150.797V26.6875H155.969V28.1875C157.188 26.9219 158.703 26.2969 160.516 26.2969ZM156.984 37.3438C157.656 38.0156 158.484 38.3594 159.5 38.3594C160.5 38.3594 161.328 38.0156 162 37.3438C162.656 36.6719 162.984 35.8438 162.984 34.8438C162.984 33.8438 162.656 33 162 32.3281C161.328 31.6562 160.5 31.3125 159.5 31.3125C158.484 31.3125 157.656 31.6562 156.984 32.3281C156.312 33 155.969 33.8438 155.969 34.8438C155.969 35.8438 156.312 36.6719 156.984 37.3438ZM187.625 34.9375C187.625 35.5156 187.594 36 187.531 36.4062H175.531C176.016 37.9844 177.297 38.9375 178.922 38.9375C180.234 38.9375 181.438 38.3594 181.859 37.625H187.328C186.75 39.3594 185.703 40.75 184.172 41.7969C182.625 42.8594 180.828 43.3906 178.781 43.3906C176.266 43.3906 174.172 42.5781 172.5 40.9375C170.828 39.2969 169.984 37.2656 169.984 34.8281C169.984 32.4062 170.828 30.375 172.5 28.7344C174.172 27.1094 176.266 26.2969 178.781 26.2969C181.328 26.2969 183.438 27.1094 185.109 28.7344C186.781 30.375 187.625 32.4375 187.625 34.9375ZM178.781 30.7188C177.281 30.7188 176.062 31.6875 175.562 33.2031H182.078C181.594 31.6562 180.328 30.7188 178.781 30.7188ZM195.281 26.6875V28.7031C196.5 27.1875 197.938 26.4375 199.609 26.4219V31.7656C196.797 31.7656 195.281 33.1875 195.281 35.5469V43H190.109V26.6875H195.281ZM209.109 26.6875H212.109V31.4219H209.109V43H203.922V31.4219H201.109V26.6875H203.922V23.0312L209.109 21.875V26.6875Z" fill="white"/>
<rect y="10" width="38" height="38" rx="19" fill="#EDECEC"/>
<path d="M16.3965 23.6235C16.3965 22.1746 17.5621 21 19 21C20.4379 21 21.6035 22.1746 21.6035 23.6235C21.6035 25.0724 20.4379 26.247 19 26.247C17.5621 26.247 16.3965 25.0724 16.3965 23.6235ZM19 26.9759C15.1178 26.9759 13.1843 29.0217 13.1843 31.5457H24.8158C24.8158 29.0217 22.8822 26.9759 19 26.9759ZM19.5209 33.3444V37.9749C22.338 36.8825 25.0485 37.4086 26.7818 37.9913C26.8112 38.0009 26.843 38.0026 26.8734 37.9963C26.9039 37.99 26.9316 37.9758 26.9535 37.9556C26.9753 37.9354 26.9903 37.9099 26.9966 37.8822C27.0029 37.8545 27.0004 37.8257 26.9892 37.7993L25.261 33.6281C25.2452 33.5886 25.2151 33.5552 25.1758 33.5331C23.7267 32.7331 20.946 32.8312 19.5209 33.3444ZM11.2182 37.9913C12.9515 37.4086 15.662 36.8825 18.4791 37.9749V33.3444C17.054 32.8312 14.2733 32.7331 12.8242 33.5331C12.7849 33.5552 12.7548 33.5886 12.739 33.6281L11.0108 37.7993C10.9996 37.8257 10.9971 37.8545 11.0034 37.8822C11.0097 37.9099 11.0247 37.9354 11.0465 37.9556C11.0684 37.9758 11.0961 37.99 11.1266 37.9963C11.157 38.0026 11.1888 38.0009 11.2182 37.9913Z" fill="#6B54EA"/>
</svg>
