<svg xmlns="http://www.w3.org/2000/svg" data-name="Layer 1" viewBox="0 0 100 125" x="0px" y="0px"><title>7</title><path d="M37.50372,18.88849C37.50372,11.21808,43.09833,5,49.99963,5s12.496,6.21808,12.496,13.88849S56.90094,32.777,49.99963,32.777,37.50372,26.5589,37.50372,18.88849ZM49.99963,36.63574c-18.63354,0-27.91388,10.83063-27.91388,24.19208H77.91357C77.91357,47.46637,68.63324,36.63574,49.99963,36.63574Zm2.5,33.71454V94.86371c13.52131-5.78339,26.53113-2.99829,34.85059.08642a.78217.78217,0,0,0,.99512-1.01635l-8.29456-22.082a.99236.99236,0,0,0-.40906-.50293C72.68622,67.11371,59.34009,67.63348,52.49963,70.35028ZM12.64905,94.95013c8.31946-3.08471,21.32934-5.86981,34.85058-.08642V70.35028c-6.84039-2.7168-20.18658-3.23657-27.14209.99854a.99239.99239,0,0,0-.40905.50293l-8.29456,22.082A.78217.78217,0,0,0,12.64905,94.95013Z"/><text x="0" y="115" fill="#000000" font-size="5px" font-weight="bold" font-family="'Helvetica Neue', Helvetica, Arial-Unicode, Arial, Sans-serif">Created by MRK</text><text x="0" y="120" fill="#000000" font-size="5px" font-weight="bold" font-family="'Helvetica Neue', Helvetica, Arial-Unicode, Arial, Sans-serif">from the Noun Project</text></svg>